<mxfile host="Electron" modified="2023-07-31T20:44:57.807Z" agent="Mozilla/5.0 (X11; Linux x86_64) AppleWebKit/537.36 (KHTML, like Gecko) draw.io/21.3.7 Chrome/112.0.5615.204 Electron/24.5.0 Safari/537.36" etag="d8rac76fI_csodhNey_o" version="21.3.7" type="device">
  <diagram name="Page-1" id="aofBVhg4gl9xZA5kA_xf">
    <mxGraphModel dx="1168" dy="1360" grid="1" gridSize="10" guides="1" tooltips="1" connect="1" arrows="1" fold="1" page="1" pageScale="1" pageWidth="850" pageHeight="1100" math="0" shadow="0">
      <root>
        <mxCell id="0" />
        <mxCell id="1" parent="0" />
        <mxCell id="GzV9J5pNSF37V0Kb8uDL-9" value="OhEngine layers" style="swimlane;childLayout=stackLayout;resizeParent=1;resizeParentMax=0;horizontal=0;startSize=20;horizontalStack=0;html=1;" parent="1" vertex="1">
          <mxGeometry width="1050" height="1080" as="geometry" />
        </mxCell>
        <mxCell id="GzV9J5pNSF37V0Kb8uDL-10" value="Lane 1" style="swimlane;startSize=20;horizontal=0;html=1;" parent="GzV9J5pNSF37V0Kb8uDL-9" vertex="1">
          <mxGeometry x="20" width="1030" height="120" as="geometry" />
        </mxCell>
        <mxCell id="wtt0GNnkYA9RW5vYnhnH-6" value="Gameplay" style="swimlane;startSize=20;horizontal=0;html=1;" vertex="1" parent="GzV9J5pNSF37V0Kb8uDL-9">
          <mxGeometry x="20" y="120" width="1030" height="120" as="geometry" />
        </mxCell>
        <mxCell id="wtt0GNnkYA9RW5vYnhnH-5" value="Scripting" style="html=1;whiteSpace=wrap;fillColor=#f8cecc;strokeColor=#b85450;" vertex="1" parent="wtt0GNnkYA9RW5vYnhnH-6">
          <mxGeometry x="430" y="35" width="110" height="50" as="geometry" />
        </mxCell>
        <mxCell id="GzV9J5pNSF37V0Kb8uDL-12" value="Management layer" style="swimlane;startSize=20;horizontal=0;html=1;" parent="GzV9J5pNSF37V0Kb8uDL-9" vertex="1">
          <mxGeometry x="20" y="240" width="1030" height="210" as="geometry" />
        </mxCell>
        <mxCell id="GzV9J5pNSF37V0Kb8uDL-15" value="CApplication" style="html=1;whiteSpace=wrap;" parent="GzV9J5pNSF37V0Kb8uDL-12" vertex="1">
          <mxGeometry x="50" y="110" width="110" height="50" as="geometry" />
        </mxCell>
        <mxCell id="wtt0GNnkYA9RW5vYnhnH-10" value="Entity component system" style="html=1;whiteSpace=wrap;fillColor=#f8cecc;strokeColor=#b85450;" vertex="1" parent="GzV9J5pNSF37V0Kb8uDL-12">
          <mxGeometry x="430" y="100" width="110" height="50" as="geometry" />
        </mxCell>
        <mxCell id="GzV9J5pNSF37V0Kb8uDL-13" value="Module layer" style="swimlane;startSize=20;horizontal=0;html=1;" parent="GzV9J5pNSF37V0Kb8uDL-9" vertex="1">
          <mxGeometry x="20" y="450" width="1030" height="260" as="geometry" />
        </mxCell>
        <mxCell id="GzV9J5pNSF37V0Kb8uDL-17" value="CWindow" style="html=1;whiteSpace=wrap;" parent="GzV9J5pNSF37V0Kb8uDL-13" vertex="1">
          <mxGeometry x="50" y="190" width="110" height="50" as="geometry" />
        </mxCell>
        <mxCell id="GzV9J5pNSF37V0Kb8uDL-28" value="Input" style="html=1;whiteSpace=wrap;fillColor=#f8cecc;strokeColor=#b85450;" parent="GzV9J5pNSF37V0Kb8uDL-13" vertex="1">
          <mxGeometry x="430" y="55" width="110" height="50" as="geometry" />
        </mxCell>
        <mxCell id="GzV9J5pNSF37V0Kb8uDL-29" value="Audio" style="html=1;whiteSpace=wrap;fillColor=#f8cecc;strokeColor=#b85450;" parent="GzV9J5pNSF37V0Kb8uDL-13" vertex="1">
          <mxGeometry x="430" y="105" width="110" height="50" as="geometry" />
        </mxCell>
        <mxCell id="GzV9J5pNSF37V0Kb8uDL-30" value="Network" style="html=1;whiteSpace=wrap;fillColor=#f8cecc;strokeColor=#b85450;" parent="GzV9J5pNSF37V0Kb8uDL-13" vertex="1">
          <mxGeometry x="430" y="155" width="110" height="50" as="geometry" />
        </mxCell>
        <mxCell id="wtt0GNnkYA9RW5vYnhnH-2" value="Event system" style="shape=module;align=left;spacingLeft=20;align=center;verticalAlign=top;whiteSpace=wrap;html=1;" vertex="1" parent="GzV9J5pNSF37V0Kb8uDL-13">
          <mxGeometry x="30" y="5" width="280" height="140" as="geometry" />
        </mxCell>
        <mxCell id="GzV9J5pNSF37V0Kb8uDL-18" value="&amp;lt;&amp;lt;interface&amp;gt;&amp;gt;&lt;br&gt;IWindowEventListener" style="html=1;whiteSpace=wrap;" parent="GzV9J5pNSF37V0Kb8uDL-13" vertex="1">
          <mxGeometry x="166" y="80" width="140" height="50" as="geometry" />
        </mxCell>
        <mxCell id="GzV9J5pNSF37V0Kb8uDL-25" value="Notifies" style="edgeStyle=orthogonalEdgeStyle;rounded=0;orthogonalLoop=1;jettySize=auto;html=1;" parent="GzV9J5pNSF37V0Kb8uDL-13" source="GzV9J5pNSF37V0Kb8uDL-16" target="GzV9J5pNSF37V0Kb8uDL-18" edge="1">
          <mxGeometry relative="1" as="geometry">
            <Array as="points">
              <mxPoint x="120" y="60" />
              <mxPoint x="236" y="60" />
            </Array>
          </mxGeometry>
        </mxCell>
        <mxCell id="GzV9J5pNSF37V0Kb8uDL-16" value="CEventManager" style="html=1;whiteSpace=wrap;" parent="GzV9J5pNSF37V0Kb8uDL-13" vertex="1">
          <mxGeometry x="50" y="80" width="110" height="50" as="geometry" />
        </mxCell>
        <mxCell id="GzV9J5pNSF37V0Kb8uDL-20" style="edgeStyle=orthogonalEdgeStyle;rounded=0;orthogonalLoop=1;jettySize=auto;html=1;entryX=0.5;entryY=1;entryDx=0;entryDy=0;" parent="GzV9J5pNSF37V0Kb8uDL-13" source="GzV9J5pNSF37V0Kb8uDL-17" target="GzV9J5pNSF37V0Kb8uDL-16" edge="1">
          <mxGeometry relative="1" as="geometry" />
        </mxCell>
        <mxCell id="GzV9J5pNSF37V0Kb8uDL-21" value="Notifies" style="edgeLabel;html=1;align=center;verticalAlign=middle;resizable=0;points=[];" parent="GzV9J5pNSF37V0Kb8uDL-20" vertex="1" connectable="0">
          <mxGeometry x="-0.2995" y="-6" relative="1" as="geometry">
            <mxPoint as="offset" />
          </mxGeometry>
        </mxCell>
        <mxCell id="wtt0GNnkYA9RW5vYnhnH-1" value="Renderer Layer" style="swimlane;startSize=20;horizontal=0;html=1;" vertex="1" parent="GzV9J5pNSF37V0Kb8uDL-9">
          <mxGeometry x="20" y="710" width="1030" height="130" as="geometry" />
        </mxCell>
        <mxCell id="wtt0GNnkYA9RW5vYnhnH-19" style="edgeStyle=orthogonalEdgeStyle;rounded=0;orthogonalLoop=1;jettySize=auto;html=1;entryX=0;entryY=0.5;entryDx=0;entryDy=0;" edge="1" parent="wtt0GNnkYA9RW5vYnhnH-1" source="wtt0GNnkYA9RW5vYnhnH-11" target="wtt0GNnkYA9RW5vYnhnH-12">
          <mxGeometry relative="1" as="geometry" />
        </mxCell>
        <mxCell id="wtt0GNnkYA9RW5vYnhnH-20" value="Uses" style="edgeLabel;html=1;align=center;verticalAlign=middle;resizable=0;points=[];" vertex="1" connectable="0" parent="wtt0GNnkYA9RW5vYnhnH-19">
          <mxGeometry x="-0.2" y="-2" relative="1" as="geometry">
            <mxPoint x="8" y="-10" as="offset" />
          </mxGeometry>
        </mxCell>
        <mxCell id="wtt0GNnkYA9RW5vYnhnH-11" value="Renderer API" style="html=1;whiteSpace=wrap;fillColor=#f8cecc;strokeColor=#b85450;" vertex="1" parent="wtt0GNnkYA9RW5vYnhnH-1">
          <mxGeometry x="50" y="40" width="110" height="50" as="geometry" />
        </mxCell>
        <mxCell id="wtt0GNnkYA9RW5vYnhnH-12" value="" style="rounded=1;absoluteArcSize=1;html=1;arcSize=10;fillColor=#f8cecc;strokeColor=#b85450;" vertex="1" parent="wtt0GNnkYA9RW5vYnhnH-1">
          <mxGeometry x="215" y="20" width="190" height="90" as="geometry" />
        </mxCell>
        <mxCell id="wtt0GNnkYA9RW5vYnhnH-13" value="Renderes" style="html=1;shape=mxgraph.er.anchor;whiteSpace=wrap;" vertex="1" parent="wtt0GNnkYA9RW5vYnhnH-12">
          <mxGeometry width="95" height="74.99750008333056" as="geometry" />
        </mxCell>
        <mxCell id="wtt0GNnkYA9RW5vYnhnH-14" value="Vulkan" style="rounded=1;absoluteArcSize=1;html=1;arcSize=10;whiteSpace=wrap;points=[];strokeColor=inherit;fillColor=inherit;" vertex="1" parent="wtt0GNnkYA9RW5vYnhnH-12">
          <mxGeometry x="104.5" y="17.999400019999335" width="85.5" height="18.746375120829306" as="geometry" />
        </mxCell>
        <mxCell id="wtt0GNnkYA9RW5vYnhnH-15" value="OpenGL" style="rounded=1;absoluteArcSize=1;html=1;arcSize=10;whiteSpace=wrap;points=[];strokeColor=inherit;fillColor=inherit;" vertex="1" parent="wtt0GNnkYA9RW5vYnhnH-12">
          <mxGeometry x="104.5" width="85.5" height="17.999400019999335" as="geometry" />
        </mxCell>
        <mxCell id="wtt0GNnkYA9RW5vYnhnH-16" value="Cairo" style="rounded=1;absoluteArcSize=1;html=1;arcSize=10;whiteSpace=wrap;points=[];strokeColor=inherit;fillColor=inherit;" vertex="1" parent="wtt0GNnkYA9RW5vYnhnH-12">
          <mxGeometry x="104.5" y="36.74577514082864" width="85.5" height="19.502349921669282" as="geometry" />
        </mxCell>
        <mxCell id="wtt0GNnkYA9RW5vYnhnH-17" value="..." style="rounded=1;absoluteArcSize=1;html=1;arcSize=10;whiteSpace=wrap;points=[];strokeColor=inherit;fillColor=inherit;" vertex="1" parent="wtt0GNnkYA9RW5vYnhnH-12">
          <mxGeometry x="104.5" y="56.24812506249792" width="85.5" height="24.749175027499085" as="geometry" />
        </mxCell>
        <mxCell id="wtt0GNnkYA9RW5vYnhnH-3" value="Debug layer" style="swimlane;startSize=20;horizontal=0;html=1;" vertex="1" parent="GzV9J5pNSF37V0Kb8uDL-9">
          <mxGeometry x="20" y="840" width="1030" height="120" as="geometry" />
        </mxCell>
        <mxCell id="GzV9J5pNSF37V0Kb8uDL-33" value="&amp;lt;&amp;lt;singleton&amp;gt;&amp;gt;&lt;br&gt;Logging" style="html=1;whiteSpace=wrap;" parent="wtt0GNnkYA9RW5vYnhnH-3" vertex="1">
          <mxGeometry x="30" y="10" width="110" height="50" as="geometry" />
        </mxCell>
        <mxCell id="wtt0GNnkYA9RW5vYnhnH-4" value="Profiler" style="html=1;whiteSpace=wrap;fillColor=#f8cecc;strokeColor=#b85450;" vertex="1" parent="wtt0GNnkYA9RW5vYnhnH-3">
          <mxGeometry x="160" y="10" width="110" height="50" as="geometry" />
        </mxCell>
        <mxCell id="GzV9J5pNSF37V0Kb8uDL-34" value="Core layer" style="swimlane;startSize=20;horizontal=0;html=1;" parent="GzV9J5pNSF37V0Kb8uDL-9" vertex="1">
          <mxGeometry x="20" y="960" width="1030" height="120" as="geometry" />
        </mxCell>
        <mxCell id="GzV9J5pNSF37V0Kb8uDL-35" value="Memory management" style="html=1;whiteSpace=wrap;fillColor=#f8cecc;strokeColor=#b85450;" parent="GzV9J5pNSF37V0Kb8uDL-34" vertex="1">
          <mxGeometry x="50" y="35" width="110" height="50" as="geometry" />
        </mxCell>
        <mxCell id="GzV9J5pNSF37V0Kb8uDL-36" value="Parsers" style="html=1;whiteSpace=wrap;fillColor=#f8cecc;strokeColor=#b85450;" parent="GzV9J5pNSF37V0Kb8uDL-34" vertex="1">
          <mxGeometry x="180" y="35" width="110" height="50" as="geometry" />
        </mxCell>
        <mxCell id="GzV9J5pNSF37V0Kb8uDL-37" value="Data structures" style="html=1;whiteSpace=wrap;fillColor=#f8cecc;strokeColor=#b85450;" parent="GzV9J5pNSF37V0Kb8uDL-34" vertex="1">
          <mxGeometry x="320" y="35" width="110" height="50" as="geometry" />
        </mxCell>
        <mxCell id="GzV9J5pNSF37V0Kb8uDL-38" value="Math" style="html=1;whiteSpace=wrap;fillColor=#f8cecc;strokeColor=#b85450;" parent="GzV9J5pNSF37V0Kb8uDL-34" vertex="1">
          <mxGeometry x="450" y="35" width="110" height="50" as="geometry" />
        </mxCell>
        <mxCell id="GzV9J5pNSF37V0Kb8uDL-23" style="edgeStyle=orthogonalEdgeStyle;rounded=0;orthogonalLoop=1;jettySize=auto;html=1;entryX=0.5;entryY=0;entryDx=0;entryDy=0;" parent="GzV9J5pNSF37V0Kb8uDL-9" source="GzV9J5pNSF37V0Kb8uDL-15" target="GzV9J5pNSF37V0Kb8uDL-18" edge="1">
          <mxGeometry relative="1" as="geometry" />
        </mxCell>
        <mxCell id="GzV9J5pNSF37V0Kb8uDL-24" value="Implements" style="edgeLabel;html=1;align=center;verticalAlign=middle;resizable=0;points=[];" parent="GzV9J5pNSF37V0Kb8uDL-23" vertex="1" connectable="0">
          <mxGeometry x="0.2669" y="4" relative="1" as="geometry">
            <mxPoint x="-5" y="-31" as="offset" />
          </mxGeometry>
        </mxCell>
        <mxCell id="wtt0GNnkYA9RW5vYnhnH-8" style="edgeStyle=orthogonalEdgeStyle;rounded=0;orthogonalLoop=1;jettySize=auto;html=1;" edge="1" parent="GzV9J5pNSF37V0Kb8uDL-9" source="GzV9J5pNSF37V0Kb8uDL-15" target="GzV9J5pNSF37V0Kb8uDL-16">
          <mxGeometry relative="1" as="geometry" />
        </mxCell>
        <mxCell id="wtt0GNnkYA9RW5vYnhnH-9" value="Register" style="edgeLabel;html=1;align=center;verticalAlign=middle;resizable=0;points=[];" vertex="1" connectable="0" parent="wtt0GNnkYA9RW5vYnhnH-8">
          <mxGeometry x="-0.7385" y="-3" relative="1" as="geometry">
            <mxPoint as="offset" />
          </mxGeometry>
        </mxCell>
      </root>
    </mxGraphModel>
  </diagram>
</mxfile>
